<?xml version="1.0" standalone="no"?><!DOCTYPE svg PUBLIC "-//W3C//DTD SVG 1.1//EN" "http://www.w3.org/Graphics/SVG/1.1/DTD/svg11.dtd"><svg class="icon" width="200px" height="189.28px" viewBox="0 0 1082 1024" version="1.1" xmlns="http://www.w3.org/2000/svg"><path fill="#0061b0" d="M367.614354 147.302125C338.827755 118.355091 311.576747 91.677065 283.454808 63.165498c-32.086973-34.012191 11.25336-82.211408 49.161826-55.327109 45.838533 43.179898 89.385139 88.812157 134.146466 133.138018a27.159331 27.159331 0 0 0 21.22324 8.663483q55.556302-0.527143 111.135523 0a25.967529 25.967529 0 0 0 20.123116-8.480129c42.79027-43.088221 85.92433-85.809733 128.760438-128.852115 11.459633-11.459633 24.982-14.553734 39.925362-10.199073 30.872252 9.626092 32.270327 48.978472 8.296775 67.15345-26.127964 26.24256-53.195617 51.22456-78.452649 78.269294 59.337981 5.431866 120.417825 0 180.466303 2.016896 103.136699 0.229193 183.69792 80.973768 183.69792 184.179224v446.925694c0 92.47924-65.182393 168.548285-156.538589 182.208168a191.375874 191.375874 0 0 1-38.848157 1.443913c-9.969881-0.550062-12.880628 3.369132-14.851684 12.307646-8.090501 47.763751-73.158298 64.173946-103.938873 26.998896-16.57063-14.164107-8.044662-40.979648-28.41989-39.512815q-194.813764-0.137516-389.627528 0c-17.739512 0-17.739512 0-22.758832 16.54771-8.525967 28.12194-31.23896 43.546606-62.77587 42.836109-24.592373-0.61882-47.78667-19.710569-53.493568-45.632259-2.108573-30.986848-66.626307 9.167707-141.182681-52.576797C25.04008 889.267534 0.745657 842.443473 0.470626 785.236984-0.262791 632.571751 0.012241 479.723164 0.287272 326.966254 0.401868 241.17944 70.213954 162.726791 155.29027 151.496351c70.59134-6.784103 142.191128 3.185778 212.324084-4.194226z m172.948783 708.20533c114.96304 0 229.903161-0.183354 344.866201 0 43.042382 0.114596 71.760223-30.29927 71.049726-70.820533-2.016895-102.288686 0.137516-204.646129-2.452362-306.957734-1.26056-49.620212-0.435466-99.286262-0.61882-148.975232-0.183354-42.286046-27.915666-70.683017-70.407986-70.728855q-345.416263-0.32087-690.855446 0c-42.583997 0-70.178794 28.374052-70.110035 70.751775q0.137516 77.306685 1.55851 154.613371c1.764784 101.921977-0.527143 203.98147 2.521119 305.81177-0.481305 39.214865 32.568277 67.932705 70.820533 66.145003q171.802821 0.091677 343.62856 0.045839zM641.155797 490.884847c4.973481-24.68405 9.717769-49.413938 14.989201-74.029231 1.604349-7.517519 7.792551-5.661059 13.10982-4.583853l115.742295 22.4838c29.9784 5.821494 59.888043 11.895099 89.95812 17.166531 8.984352 1.581429 11.459633 5.065158 9.511496 13.75156q-7.036215 32.430762-12.926466 65.113635c-1.466833 8.067582-4.583853 10.93249-13.13274 9.167707-69.262023-13.636963-138.592804-26.930138-207.877746-40.429586-4.629692-0.802174-10.772055-0.802174-9.37398-8.640563zM411.573506 411.607104c6.87578-1.077206 9.465657 1.306398 10.428267 6.302799 4.583853 23.606844 9.030191 47.259527 14.026591 70.774694 1.993976 9.419818-4.125468 9.832365-10.244912 11.001248l-170.90897 33.210017c-65.526182 12.605596-40.31499 18.587525-61.652826-68.757799-1.696026-8.411371 2.864908-10.749136 9.717769-12.055534 69.284942-13.43069 139.532494-26.700945 208.634081-40.475425zM597.769626 741.346589c-39.67325-0.412547-50.92661-35.662378-64.33438-21.177402-65.434505 63.280094-173.269654-33.553806-128.485407-64.792766 21.54411-13.086901 33.599644 17.556158 48.130459 28.809518 16.318518 14.943362 37.610516 14.347461 53.287294-1.26056 11.276279-11.25336 17.051934-26.150883 25.990448-38.962752 8.021743-11.459633 9.511496-11.459633 17.304046 0.137515 26.127964 50.812013 59.131707 74.831405 98.552846 18.74796 8.571806-10.703297 18.702121-13.270255 29.084549-7.425842 40.085797 32.843309-40.727536 90.233152-79.529855 85.924329z" /></svg>